<svg xmlns="http://www.w3.org/2000/svg" width="942" height="314" viewBox="0 0 942 314" version="1.1">
	<path d="M 300 20.020 C 288.314 22.088, 272.112 27.408, 262.015 32.492 C 243.269 41.933, 221.530 60.694, 210.242 77.174 C 199.378 93.034, 191.074 112.997, 187.435 132 C 184.768 145.931, 184.961 170.097, 187.848 183.688 C 197.067 227.081, 223.629 261.789, 262.500 281.234 C 332.054 316.028, 416.206 286.701, 449.927 215.914 C 459.851 195.082, 463.475 176.889, 462.657 152 C 461.736 123.956, 454.783 102.092, 439.396 78.852 C 432.906 69.050, 412.494 48.611, 402.602 42.010 C 392.075 34.985, 374.581 26.703, 363.500 23.500 C 343.758 17.791, 319.960 16.487, 300 20.020 M 629.500 19.455 C 569.838 28.834, 523.418 75.012, 513.460 134.892 C 511.393 147.320, 511.931 174.171, 514.471 185.401 C 520.723 213.037, 534.605 237.788, 554.633 257.010 C 565.722 267.651, 574.523 273.929, 587.839 280.695 C 608.485 291.185, 626.494 295.416, 650.500 295.416 C 667.727 295.416, 677.486 294.002, 692.374 289.349 C 700.763 286.727, 720.045 278.159, 719.941 277.099 C 719.909 276.770, 716.731 274.479, 712.879 272.009 C 675.106 247.788, 651.032 203.089, 651.006 157.128 C 650.994 136.696, 656.535 112.801, 665.340 95.318 C 675.335 75.469, 693.930 54.128, 711.250 42.626 C 716.063 39.430, 720 36.603, 720 36.343 C 720 35.449, 702.754 27.790, 694.133 24.856 C 675.573 18.539, 649.297 16.343, 629.500 19.455" stroke="none" fill="black" fill-rule="evenodd"/>
</svg>